<svg width="32" height="32" viewBox="0 0 32 32" fill="none" xmlns="http://www.w3.org/2000/svg">
<g clip-path="url(#clip0_434_1697)">
<path d="M32 16C32 7.16344 24.8366 0 16 0C7.16344 0 0 7.16344 0 16C0 24.8366 7.16344 32 16 32C24.8366 32 32 24.8366 32 16Z" fill="white"/>
<path d="M21.8332 15.1667H12.5249L16.5915 11.1C16.9165 10.775 16.9165 10.2417 16.5915 9.91668C16.5144 9.83942 16.4229 9.77813 16.322 9.73632C16.2212 9.6945 16.1132 9.67297 16.004 9.67297C15.8949 9.67297 15.7868 9.6945 15.686 9.73632C15.5852 9.77813 15.4936 9.83942 15.4165 9.91668L9.92486 15.4083C9.8476 15.4854 9.78631 15.577 9.7445 15.6778C9.70268 15.7786 9.68115 15.8867 9.68115 15.9958C9.68115 16.105 9.70268 16.2131 9.7445 16.3139C9.78631 16.4147 9.8476 16.5062 9.92486 16.5833L15.4165 22.075C15.4937 22.1522 15.5853 22.2134 15.6861 22.2551C15.7869 22.2969 15.8949 22.3184 16.004 22.3184C16.1131 22.3184 16.2212 22.2969 16.322 22.2551C16.4228 22.2134 16.5144 22.1522 16.5915 22.075C16.6687 21.9979 16.7299 21.9063 16.7716 21.8055C16.8134 21.7047 16.8349 21.5966 16.8349 21.4875C16.8349 21.3784 16.8134 21.2704 16.7716 21.1696C16.7299 21.0688 16.6687 20.9772 16.5915 20.9L12.5249 16.8333H21.8332C22.2915 16.8333 22.6665 16.4583 22.6665 16C22.6665 15.5417 22.2915 15.1667 21.8332 15.1667Z" fill="#1A1A1A"/>
</g>
<defs>
<clipPath id="clip0_434_1697">
<rect width="32" height="32" fill="white"/>
</clipPath>
</defs>
</svg>
